<svg width="725" height="672" viewBox="0 0 725 672" fill="none" xmlns="http://www.w3.org/2000/svg">
<path d="M335.971 139.647C251.603 82.9466 117.36 147.206 126.741 282.393C142.738 512.892 305.93 539.666 448.631 512.892C635.364 477.856 678.446 267.605 506.024 282.393C367.65 294.261 441.43 210.522 335.971 139.647Z" fill="#FCDDD4"/>
<mask id="mask0" mask-type="alpha" maskUnits="userSpaceOnUse" x="126" y="119" width="489" height="403">
<path d="M335.97 139.647C251.602 82.9467 117.359 147.206 126.74 282.393C142.737 512.892 305.929 539.666 448.63 512.892C635.363 477.856 678.445 267.605 506.023 282.393C367.649 294.261 441.429 210.522 335.97 139.647Z" fill="#FCDDD4"/>
</mask>
<g mask="url(#mask0)">
<path opacity="0.7" d="M101.666 154.583C129.46 142.572 195.022 125.264 234.916 152.119C284.784 185.687 130.514 229.084 177.99 254.624C225.465 280.165 314.178 172.852 348.466 191.298C382.754 209.744 261.222 258.956 296.584 284.721C331.945 310.485 435.655 197.758 478.576 219.163C521.497 240.568 375.968 302.149 444.544 339.041" stroke="url(#paint0_linear)" stroke-width="2"/>
<path d="M272.599 540.059C272.599 512.479 295.011 490.121 322.659 490.121L591.472 490.121L591.472 599.025L272.599 599.025L272.599 540.059Z" fill="#F58A6B"/>
</g>
<path fill-rule="evenodd" clip-rule="evenodd" d="M159.299 296.691C160.946 298.025 162.233 299.454 163.249 300.828L165.896 297.351C164.64 296.04 163.417 294.847 161.955 293.718L159.299 296.691Z" fill="#3E1A0B"/>
<path fill-rule="evenodd" clip-rule="evenodd" d="M167.883 302.763C166.395 300.124 163.072 299.233 160.423 300.815L156.912 303.004C154.263 304.587 153.42 308.092 154.789 310.762C156.277 313.401 159.6 314.292 162.249 312.71L165.76 310.521C168.409 308.938 169.404 305.519 167.883 302.763Z" fill="#F69E9F"/>
<path fill-rule="evenodd" clip-rule="evenodd" d="M309.916 192.31L247.723 202.398L244.41 182.686C244.081 181.005 242.466 179.789 240.606 180.027L191.307 187.977C189.598 188.301 188.362 189.89 188.604 191.721L191.917 211.432L133.293 220.957C131.824 221.218 130.675 222.657 130.941 224.103L171.067 464.835C171.333 466.281 172.795 467.411 174.264 467.15L350.92 438.621C352.389 438.36 353.537 436.92 353.272 435.475L313.025 194.774C312.968 193.147 311.417 192.167 309.916 192.31Z" fill="url(#paint1_linear)"/>
<path fill-rule="evenodd" clip-rule="evenodd" d="M301.285 222.806L146.042 247.961C144.693 248.191 143.752 249.449 143.985 250.777L178.748 459.079C178.981 460.406 180.26 461.332 181.609 461.102L336.852 435.947C338.202 435.718 339.142 434.459 338.909 433.132L304.146 224.83C303.913 223.502 302.634 222.577 301.285 222.806Z" fill="#F36F49"/>
<path fill-rule="evenodd" clip-rule="evenodd" d="M300.807 215.424L149.34 239.836C147.99 240.065 147.169 241.292 147.402 242.62L181.329 445.964C181.562 447.292 182.809 448.099 184.158 447.87L335.713 423.309C337.062 423.079 337.883 421.852 337.65 420.525L303.724 217.18C303.403 216.002 302.156 215.194 300.807 215.424Z" fill="#FAFBFC"/>
<path opacity="0.8" d="M295.244 224.216L157.453 246.536C156.703 246.608 156.048 247.033 155.698 247.631C155.347 248.228 155.148 248.912 155.221 249.651L186.534 437.267C186.607 438.005 187.039 438.649 187.646 438.994C188.253 439.339 188.948 439.535 189.699 439.463L327.522 417.261C328.272 417.189 328.927 416.764 329.277 416.166C329.628 415.568 329.827 414.885 329.754 414.146L298.409 226.412C298.336 225.674 297.904 225.03 297.297 224.685C296.69 224.34 295.995 224.144 295.244 224.216ZM328.644 414.312C328.773 414.784 328.629 415.2 328.334 415.531C328.039 415.861 327.712 416.074 327.233 416.2L189.562 438.489C189.083 438.615 188.66 438.474 188.324 438.184C187.988 437.894 187.772 437.572 187.644 437.1L156.299 249.367C156.17 248.895 156.314 248.479 156.609 248.148C156.904 247.818 157.231 247.605 157.71 247.479L295.501 225.159C295.98 225.032 296.403 225.173 296.739 225.463C297.075 225.754 297.291 226.076 297.419 226.547L328.644 414.312Z" fill="#F58A6B"/>
<path fill-rule="evenodd" clip-rule="evenodd" d="M216.741 189.478C213.803 190 211.834 192.666 212.364 195.557C212.895 198.449 215.604 200.386 218.542 199.864C221.48 199.342 223.449 196.675 222.919 193.784C222.42 191.011 219.679 188.956 216.741 189.478Z" fill="#FAFBFC"/>
<path fill-rule="evenodd" clip-rule="evenodd" d="M258.107 197.639L180.648 210.11C178.94 210.434 177.704 212.023 177.946 213.854L181.556 235.128C181.885 236.81 183.5 238.026 185.36 237.788L262.818 225.316C264.527 224.992 265.762 223.403 265.521 221.573L261.998 200.148C261.549 198.499 259.815 197.314 258.107 197.639Z" fill="#F58A6B"/>
<path opacity="0.8" fill-rule="evenodd" clip-rule="evenodd" d="M216.42 207.623L186.912 212.373C185.563 212.603 184.622 213.861 184.855 215.189L187.661 231.624C187.894 232.952 189.173 233.878 190.522 233.648L220.03 228.897C221.379 228.668 222.32 227.409 222.087 226.082L219.281 209.646C219.048 208.319 217.769 207.393 216.42 207.623Z" fill="#F36F49"/>
<path opacity="0.2" d="M212.305 261.39L212.646 263.436L293.746 250.315L293.404 248.269L212.305 261.39Z" fill="#EE4D47"/>
<path opacity="0.2" d="M213.159 266.569L213.501 268.615L294.6 255.494L294.259 253.448L213.159 266.569Z" fill="#EE4D47"/>
<path opacity="0.2" d="M254.462 265.037L254.804 267.084L295.415 260.513L295.073 258.467L254.462 265.037Z" fill="#EE4D47"/>
<path opacity="0.2" d="M214.011 271.609L214.353 273.656L252.395 267.501L252.053 265.455L214.011 271.609Z" fill="#EE4D47"/>
<path opacity="0.2" d="M217.898 295.235L218.239 297.281L299.339 284.16L298.997 282.114L217.898 295.235Z" fill="#EE4D47"/>
<path opacity="0.2" d="M218.752 300.415L219.094 302.461L300.193 289.339L299.851 287.293L218.752 300.415Z" fill="#EE4D47"/>
<path opacity="0.2" d="M260.181 298.863L260.522 300.909L301.133 294.339L300.792 292.292L260.181 298.863Z" fill="#EE4D47"/>
<path opacity="0.2" d="M219.607 305.455L219.948 307.501L257.99 301.346L257.649 299.3L219.607 305.455Z" fill="#EE4D47"/>
<path opacity="0.2" d="M222.984 325.589L223.326 327.635L304.426 314.514L304.084 312.468L222.984 325.589Z" fill="#EE4D47"/>
<path opacity="0.2" d="M223.839 330.768L224.181 332.815L305.28 319.694L304.938 317.647L223.839 330.768Z" fill="#EE4D47"/>
<path opacity="0.2" d="M265.266 329.217L265.607 331.263L306.218 324.693L305.877 322.647L265.266 329.217Z" fill="#EE4D47"/>
<path opacity="0.2" d="M224.691 335.809L225.032 337.856L263.074 331.701L262.733 329.655L224.691 335.809Z" fill="#EE4D47"/>
<path opacity="0.2" d="M228.185 356.855L228.526 358.901L309.626 345.78L309.284 343.734L228.185 356.855Z" fill="#EE4D47"/>
<path opacity="0.2" d="M229.061 362.155L229.402 364.201L310.502 351.08L310.16 349.034L229.061 362.155Z" fill="#EE4D47"/>
<path opacity="0.2" d="M270.486 360.603L270.828 362.65L311.439 356.079L311.097 354.033L270.486 360.603Z" fill="#EE4D47"/>
<path opacity="0.2" d="M229.911 367.196L230.253 369.242L268.295 363.087L267.953 361.041L229.911 367.196Z" fill="#EE4D47"/>
<path opacity="0.2" d="M233.306 387.92L233.647 389.966L314.747 376.845L314.405 374.799L233.306 387.92Z" fill="#EE4D47"/>
<path opacity="0.2" d="M234.16 393.099L234.502 395.146L315.601 382.024L315.26 379.978L234.16 393.099Z" fill="#EE4D47"/>
<path opacity="0.2" d="M275.587 391.547L275.929 393.594L316.54 387.023L316.198 384.977L275.587 391.547Z" fill="#EE4D47"/>
<path opacity="0.2" d="M235.136 398.12L235.478 400.167L273.52 394.012L273.178 391.966L235.136 398.12Z" fill="#EE4D47"/>
<path opacity="0.2" d="M174.039 261.737L173.049 261.872L173.186 262.846L176.234 281.112L176.371 282.086L177.361 281.951L197.272 278.721L198.262 278.586L198.125 277.612L195.078 259.346L194.941 258.372L193.951 258.506L174.039 261.737ZM196.04 277.025L177.957 279.899L175.151 263.464L193.115 260.621L196.04 277.025Z" fill="#EE4D47"/>
<path opacity="0.2" d="M179.71 296.234L178.72 296.369L178.976 297.311L182.024 315.577L182.161 316.551L183.151 316.417L203.062 313.186L204.052 313.051L203.915 312.077L200.868 293.811L200.731 292.837L199.741 292.972L179.71 296.234ZM201.711 311.522L183.747 314.365L180.941 297.93L198.905 295.087L201.711 311.522Z" fill="#EE4D47"/>
<path opacity="0.2" d="M185.235 329.254L184.245 329.388L184.381 330.363L187.429 348.628L187.566 349.603L188.556 349.468L208.467 346.237L209.457 346.103L209.321 345.128L206.273 326.862L206.136 325.888L205.146 326.023L185.235 329.254ZM207.236 344.542L189.272 347.385L186.466 330.949L204.43 328.106L207.236 344.542Z" fill="#EE4D47"/>
<path opacity="0.2" d="M190.822 362.509L189.832 362.644L189.969 363.618L193.049 382.002L193.186 382.976L194.176 382.842L214.087 379.611L215.077 379.476L214.941 378.502L211.893 360.236L211.756 359.262L210.766 359.397L190.822 362.509ZM212.824 377.797L194.86 380.64L192.054 364.205L210.018 361.362L212.824 377.797Z" fill="#EE4D47"/>
<path opacity="0.2" d="M196.211 394.555L195.221 394.69L195.358 395.664L198.406 413.93L198.543 414.904L199.533 414.769L219.444 411.539L220.434 411.404L220.297 410.43L217.249 392.164L217.113 391.19L216.123 391.325L196.211 394.555ZM218.18 409.725L200.217 412.568L197.411 396.133L215.374 393.29L218.18 409.725Z" fill="#EE4D47"/>
<path d="M186.427 270.467L176.039 264.367L174.867 266.191L186.286 272.778L187.197 273.295L187.723 272.399L201.775 250.002L199.953 248.967L186.427 270.467Z" fill="#EE4D47"/>
<path d="M192.355 305.907L181.967 299.806L180.795 301.631L192.214 308.217L193.092 308.617L193.65 307.838L207.67 285.324L205.848 284.289L192.355 305.907Z" fill="#F58A6B"/>
<path d="M203.7 373.511L193.193 367.441L192.141 369.234L203.44 375.853L204.35 376.37L204.876 375.474L219.048 353.045L217.194 351.893L203.7 373.511Z" fill="#F58A6B"/>
<path fill-rule="evenodd" clip-rule="evenodd" d="M174.125 478.426C173.047 478.71 172.434 479.756 172.722 480.816C173.011 481.877 174.074 482.481 175.151 482.196C176.229 481.912 176.843 480.866 176.554 479.806C176.265 478.745 175.203 478.142 174.125 478.426Z" fill="#FAFBFC"/>
<path d="M203.689 470.109C204.438 469.778 204.773 468.911 204.436 468.174C204.099 467.436 203.219 467.107 202.469 467.438C201.72 467.77 201.385 468.636 201.722 469.374C202.059 470.111 202.939 470.44 203.689 470.109Z" fill="#FAFBFC"/>
<path d="M244.715 458.168C245.31 458.011 245.663 457.409 245.504 456.823C245.344 456.237 244.732 455.89 244.137 456.047C243.542 456.204 243.189 456.806 243.348 457.391C243.508 457.977 244.119 458.325 244.715 458.168Z" fill="#FAFBFC"/>
<path fill-rule="evenodd" clip-rule="evenodd" d="M266.054 454.055C265.096 454.308 264.57 455.205 264.827 456.147C265.084 457.09 265.995 457.607 266.952 457.355C267.91 457.102 268.436 456.206 268.18 455.263C267.955 454.438 267.012 453.803 266.054 454.055Z" fill="#FAFBFC"/>
<path fill-rule="evenodd" clip-rule="evenodd" d="M298.497 446.889C298.138 446.983 297.963 447.282 298.059 447.636C298.155 447.989 298.459 448.162 298.818 448.067C299.177 447.972 299.352 447.673 299.256 447.32C299.28 446.935 298.856 446.794 298.497 446.889Z" fill="#FAFBFC"/>
<path fill-rule="evenodd" clip-rule="evenodd" d="M365.517 425.299C364.918 425.457 364.687 426.023 364.815 426.495C364.976 427.084 365.551 427.311 366.03 427.185C366.628 427.027 366.859 426.461 366.731 425.989C366.723 425.486 366.115 425.141 365.517 425.299Z" fill="#FAFBFC"/>
<path d="M477.278 235.88C477.278 224.834 468.324 215.88 457.278 215.88H381.117C370.071 215.88 361.117 224.834 361.117 235.88V245.78C361.117 256.826 370.071 265.78 381.117 265.78H477.278V235.88Z" fill="white"/>
<ellipse rx="3.85066" ry="3.78992" transform="matrix(-1 0 0 1 450.966 241.146)" fill="#F4A984"/>
<ellipse rx="3.85066" ry="3.78992" transform="matrix(-1 0 0 1 434.921 241.146)" fill="#F4A984"/>
<ellipse rx="3.85066" ry="3.78992" transform="matrix(-1 0 0 1 418.876 241.146)" fill="#F4A984"/>
<ellipse rx="3.85066" ry="3.78992" transform="matrix(-1 0 0 1 402.832 241.146)" fill="#F4A984"/>
<ellipse rx="3.85066" ry="3.78992" transform="matrix(-1 0 0 1 386.787 241.146)" fill="#F4A984"/>
<path d="M326.917 401.512C283.06 401.512 305.29 339.14 321.888 307.953C330.773 301.353 352.568 288.054 368.662 287.658C384.757 287.262 394.816 306.964 397.834 316.864C395.989 317.029 394.112 324.586 401.354 353.495C408.597 382.405 405.043 397.552 402.36 401.512H326.917Z" fill="#402B2B"/>
<path d="M372.786 386.702C368.649 379.584 371.751 368.569 371.751 368.569L358.996 371.111L346.241 368.569C346.241 368.569 347.793 373.823 347.275 379.584C351.757 384.668 362.099 394.158 372.786 386.702Z" fill="url(#paint2_linear)"/>
<path d="M370.973 372.537C368.181 374.192 364.654 375.725 360.705 376.9C355.752 378.373 351.033 379.018 347.329 378.879C347.668 373.401 346.241 368.569 346.241 368.569L358.996 371.111L371.751 368.569C371.751 368.569 371.302 370.166 370.973 372.537Z" fill="url(#paint3_linear)" style="mix-blend-mode:multiply"/>
<path d="M327.798 396.7C335.21 403.14 349.861 417.206 359.169 417.206C368.476 417.206 385.024 403.818 392.435 397.378C388.816 396.022 377.784 391.786 375.199 389.583C374.337 388.735 373.475 387.719 372.958 386.702C362.271 394.158 351.929 384.668 347.448 379.415C347.103 383.143 346.069 386.871 343.138 389.413C340.208 391.786 331.245 395.345 327.798 396.7Z" fill="url(#paint4_linear)"/>
<path d="M394.087 330.101C392.88 327.898 390.984 327.559 389.778 327.898C389.778 327.898 386.33 317.052 383.917 309.087C375.816 305.359 368.232 302.139 359.096 301.461V301.292C357.717 301.292 355.304 301.292 353.925 301.292C348.237 301.461 342.549 301.631 337.033 302.648C335.654 302.987 334.276 303.325 332.897 303.325C331.173 312.307 328.243 328.067 327.036 327.898H326.864C326.691 327.898 326.691 327.898 326.519 327.728C325.312 327.389 323.934 327.728 322.727 329.762C320.659 333.49 322.727 340.947 325.485 343.15C326.864 344.166 328.07 345.014 328.932 345.522C330.311 352.301 332.724 358.74 336.344 362.638C345.824 372.636 354.615 374.839 357.028 375.178C357.2 375.178 357.545 375.178 357.717 375.178C357.717 375.178 357.89 375.178 358.062 375.178C359.786 375.009 369.266 373.314 379.436 362.469C383.055 358.74 385.641 356.029 387.192 346.031C388.226 345.522 389.26 344.675 390.984 343.319C394.087 341.286 396.155 333.829 394.087 330.101Z" fill="url(#paint5_linear)"/>
<path d="M358.84 339.635C358.84 339.635 358.972 343.453 357.923 344.709C356.874 345.965 354.884 347.182 354.719 348.12C354.527 348.881 355.36 350.216 356.814 350.543C358.268 350.87 358.504 351.383 358.504 351.383C358.504 351.383 355.821 352.156 354.143 350.401C352.465 348.646 353.734 346.808 354.964 345.707C356.193 344.607 356.746 344.157 357.27 343.529C357.947 342.878 358.84 339.635 358.84 339.635Z" fill="#D87C60"/>
<path d="M369.231 356.465H348.405C347.727 356.465 347.252 357.124 347.528 357.743C349 361.044 352.601 365.871 358.602 365.871C364.579 365.871 368.431 361.084 370.091 357.784C370.405 357.16 369.929 356.465 369.231 356.465Z" fill="#D87C60"/>
<path fill-rule="evenodd" clip-rule="evenodd" d="M369.141 359.436H348.41C348.06 358.85 347.767 358.277 347.529 357.743C347.253 357.124 347.729 356.466 348.407 356.466H369.232C369.93 356.466 370.406 357.16 370.092 357.784C369.83 358.306 369.513 358.864 369.141 359.436Z" fill="white"/>
<path d="M378.819 289.091C404.502 292.31 398.469 323.153 393.47 328.576L389.786 334.685C387.942 331.549 384.153 322.903 383.751 313.399C379.895 315.874 368.36 320.824 353.07 320.824C333.958 320.824 328.719 323.938 326.917 332.705C322.435 322.876 319.353 302.987 330.384 291.802C345.552 276.211 368.477 272.483 378.819 289.091Z" fill="#402B2B"/>
<path d="M326.935 332.643L327.797 339.93C327.797 339.93 325.212 338.574 324.695 335.185C324.522 333.151 325.384 331.796 326.935 332.643Z" fill="#ED8A40"/>
<path d="M389.503 332.643L388.642 339.93C388.642 339.93 391.227 338.574 391.744 335.185C391.917 333.151 391.227 331.796 389.503 332.643Z" fill="#ED8A40"/>
<path d="M375.891 340.883C375.891 342.408 374.684 343.764 372.96 343.764C371.409 343.764 370.03 342.578 370.03 340.883C370.03 339.358 371.237 338.002 372.96 338.002C374.684 338.002 375.891 339.358 375.891 340.883Z" fill="#402B2B"/>
<path d="M345.209 343.764C346.827 343.764 348.139 342.474 348.139 340.883C348.139 339.292 346.827 338.002 345.209 338.002C343.59 338.002 342.278 339.292 342.278 340.883C342.278 342.474 343.59 343.764 345.209 343.764Z" fill="#402B2B"/>
<path d="M337.521 335.537C338.777 334.188 342.454 331.49 347.114 331.49" stroke="#402B2B" stroke-width="2"/>
<path d="M370.755 331.606C372.612 331.526 377.151 332.178 380.446 335.421" stroke="#402B2B" stroke-width="2"/>
<path d="M420.532 435.169C421.222 416.867 415.534 406.021 406.915 401.446C398.297 396.87 377.958 391.108 377.268 390.939L358.825 405.343L341.244 390.939C340.554 391.108 319.698 396.87 311.252 401.446C302.633 406.021 296.945 416.867 297.635 435.169C298.152 449.913 297.118 473.129 297.29 490.076H421.049C421.049 473.129 420.015 449.913 420.532 435.169Z" fill="url(#paint6_linear)"/>
<path d="M368.994 397.209L364.168 395.006L358.652 405.005L353.136 395.006L348.138 397.209L355.377 408.733V490.076H362.099V408.224L368.994 397.209Z" fill="#EE4D47" fill-opacity="0.29" style="mix-blend-mode:multiply"/>
<path d="M347.277 379.415C347.104 384.33 354.171 397.039 354.171 397.039L341.933 408.733L337.969 391.786C337.969 391.786 341.933 381.449 347.277 379.415Z" fill="white"/>
<path d="M370.718 379.415C370.891 384.33 362.962 397.209 362.962 397.209L375.889 408.733L379.854 391.617C379.854 391.617 376.062 381.449 370.718 379.415Z" fill="white"/>
<path d="M360.723 411.613C360.723 412.63 359.861 413.478 358.827 413.478C357.792 413.478 356.931 412.63 356.931 411.613C356.931 410.597 357.792 409.749 358.827 409.749C359.861 409.749 360.723 410.597 360.723 411.613Z" fill="white"/>
<path d="M360.722 428.899C360.722 429.916 359.86 430.763 358.826 430.763C357.792 430.763 356.93 429.916 356.93 428.899C356.93 427.882 357.792 427.035 358.826 427.035C359.86 427.035 360.722 427.713 360.722 428.899Z" fill="white"/>
<path d="M360.722 445.845C360.722 446.862 359.86 447.709 358.826 447.709C357.792 447.709 356.93 446.862 356.93 445.845C356.93 444.829 357.792 443.981 358.826 443.981C359.86 443.981 360.722 444.829 360.722 445.845Z" fill="white"/>
<path d="M360.722 464.656C360.722 465.673 359.86 466.52 358.826 466.52C357.792 466.52 356.93 465.673 356.93 464.656C356.93 463.639 357.792 462.792 358.826 462.792C359.86 462.792 360.722 463.639 360.722 464.656Z" fill="white"/>
<path d="M300.392 406.529C300.392 406.529 282.122 454.827 280.743 462.792C279.536 470.757 289.878 489.228 294.704 489.906C301.771 490.923 307.459 488.889 314.526 477.027C321.421 465.164 320.215 414.494 320.215 414.494L300.392 406.529Z" fill="url(#paint7_linear)"/>
<path d="M320.387 409.749C320.387 409.749 319.18 468.045 316.595 475.332C312.458 487.025 301.943 490.245 301.943 490.245H313.664C313.664 490.245 322.8 484.314 323.662 466.52C324.179 455.844 322.283 421.781 321.248 410.427C320.904 407.377 320.387 409.749 320.387 409.749Z" fill="#EE4D47" fill-opacity="0.29" style="mix-blend-mode:multiply"/>
<path d="M324.438 404.248L304.62 396.376L300.488 406.433L320.305 414.304L324.438 404.248Z" fill="white"/>
<path d="M399.331 418.053C399.331 418.053 392.264 451.099 391.747 464.656C391.23 478.213 391.747 489.906 391.747 489.906L396.746 490.245C396.746 490.245 397.953 430.933 399.331 418.053Z" fill="#EE4D47" fill-opacity="0.29" style="mix-blend-mode:multiply"/>
<path d="M339.345 372.298C329.864 372.298 326.762 367.722 324.866 360.774C324.004 357.046 323.659 347.047 323.659 346.708H326.417C326.417 346.878 326.762 356.876 327.624 360.266C329.347 366.875 331.933 370.264 341.241 369.586L341.413 372.298C340.723 372.298 340.034 372.298 339.345 372.298Z" fill="white"/>
<path d="M358.823 280.109C351.239 279.431 333.83 279.939 325.901 294.852C325.901 294.852 327.97 298.411 330.383 296.039C339.001 288.413 351.067 288.243 358.479 288.243C366.063 288.243 378.646 288.243 387.091 296.039C389.677 298.242 391.573 294.852 391.573 294.852C383.816 279.939 366.407 279.431 358.823 280.109Z" fill="white"/>
<path d="M399.674 331.287C399.674 331.287 399.33 320.95 399.157 318.069C398.813 312.477 397.951 303.325 396.055 298.411C389.85 281.634 369.683 278.414 359.168 278.414C348.482 278.414 327.97 281.634 321.765 298.242C320.041 302.987 319.179 311.46 318.662 317.222C318.49 320.611 318.317 331.118 318.317 331.118H321.248C321.248 331.118 321.248 320.611 321.592 317.222C321.937 312.815 322.799 306.376 325.04 300.275C330.211 285.871 349.343 284.345 358.651 284.345C368.131 284.345 387.609 285.871 392.78 300.275C395.193 307.054 396.055 314.002 396.399 318.408C396.572 321.289 396.744 331.287 396.744 331.287H399.674V331.287Z" fill="url(#paint8_linear)"/>
<path d="M321.938 329.254H318.146V345.183H321.938V329.254Z" fill="white"/>
<path d="M328.66 348.234H324.351C322.282 348.234 320.559 346.539 320.559 344.505V329.931C320.559 327.898 322.282 326.203 324.351 326.203H328.66C329.177 326.203 329.522 326.542 329.522 327.05V347.217C329.522 347.725 329.177 348.234 328.66 348.234Z" fill="url(#paint9_linear)"/>
<path d="M316.594 346.539H316.421C315.56 346.539 314.87 345.861 314.87 345.014V329.084C314.87 328.237 315.56 327.559 316.421 327.559H316.594C317.456 327.559 318.145 328.237 318.145 329.084V345.014C318.145 345.861 317.456 346.539 316.594 346.539Z" fill="url(#paint10_linear)"/>
<path d="M395.497 345.458H399.289V329.529H395.497V345.458Z" fill="white"/>
<path d="M388.987 348.572H393.297C395.365 348.572 397.089 346.878 397.089 344.844V330.27C397.089 328.237 395.365 326.542 393.297 326.542H388.987C388.47 326.542 388.126 326.881 388.126 327.389V347.556C387.953 348.064 388.47 348.572 388.987 348.572Z" fill="url(#paint11_linear)"/>
<path d="M400.881 346.878H401.054C401.916 346.878 402.605 346.2 402.605 345.353V329.423C402.605 328.576 401.916 327.898 401.054 327.898H400.881C400.02 327.898 399.33 328.576 399.33 329.423V345.353C399.33 346.2 400.02 346.878 400.881 346.878Z" fill="url(#paint12_linear)"/>
<path d="M349.516 370.603C349.516 372.298 347.447 373.823 344.69 373.823C342.104 373.823 339.863 372.467 339.863 370.603C339.863 368.739 341.932 367.383 344.69 367.383C347.275 367.383 349.516 368.739 349.516 370.603Z" fill="url(#paint13_linear)"/>
<path fill-rule="evenodd" clip-rule="evenodd" d="M322.753 363.889L323.49 366.197C323.49 366.197 325.559 364.333 326.248 363.825C330.557 360.944 332.798 363.316 330.902 365.858C328.834 368.4 325.731 375.687 326.765 380.771C327.455 384.16 326.938 388.905 326.076 392.634C325.214 396.192 319.871 406.699 319.871 406.699L306.081 401.954C306.081 401.954 309.184 398.734 308.667 390.939C308.514 388.384 307.48 385.695 306.451 383.021C305.16 379.666 303.878 376.333 304.358 373.315C305.22 368.57 312.287 360.944 313.493 359.757C315.097 358.279 316.933 357.26 318.698 356.399C321.869 354.38 325.567 352.083 326.938 351.454C329.696 350.098 331.419 352.47 327.455 355.86C326.594 356.595 325.596 357.379 324.56 358.155C326.713 357.343 328.618 356.646 329.523 356.368C332.453 355.521 333.832 358.232 329.178 360.774C327.285 361.808 324.907 362.926 322.753 363.889Z" fill="url(#paint14_linear)"/>
<path opacity="0.3" d="M325.903 380.093C326.248 375.857 325.903 375.009 325.558 372.976C325.214 370.603 325.731 367.553 324.697 365.35C323.49 362.977 321.594 361.622 318.319 362.299C314.01 363.316 312.286 365.519 312.286 365.519C312.286 365.519 315.733 364.163 317.457 363.655C320.043 362.977 322.628 363.147 323.662 366.197C324.179 368.061 324.524 370.603 324.869 372.467C325.041 373.823 326.075 379.754 325.214 379.924C324.352 379.924 322.456 379.415 321.594 376.365C321.422 377.043 321.249 381.618 320.732 381.618C317.63 381.279 317.285 378.907 317.112 376.365C317.112 375.179 316.94 373.484 316.595 371.281C315.389 373.145 312.459 374.84 311.252 375.687C312.631 376.873 315.216 379.754 316.251 380.94C318.147 383.144 319.87 386.533 320.215 390.092C324.869 385.685 322.283 381.11 322.111 379.585C323.318 380.94 325.731 381.957 325.903 380.093Z" fill="#EB5046"/>
<path d="M521.368 380.093C521.368 377.551 519.3 375.687 516.542 375.687H389.163C386.578 375.687 384.337 377.721 384.337 380.093V458.047H521.196V380.093H521.368Z" fill="url(#paint15_linear)"/>
<path d="M389.335 472.79H516.714C519.299 472.79 521.54 470.757 521.54 468.384V458.216H384.681V468.384C384.509 470.757 386.75 472.79 389.335 472.79Z" fill="#CA3F3A"/>
<path d="M472.933 470.926H438.805V486.856H472.933V470.926Z" fill="#CA3F3A"/>
<path d="M477.069 470.926H442.94V486.856H477.069V470.926Z" fill="url(#paint16_linear)"/>
<path d="M471.381 485.331H429.151V489.906H471.381V485.331Z" fill="url(#paint17_linear)"/>
<path d="M485.17 485.331H442.94V489.906H485.17V485.331Z" fill="url(#paint18_linear)"/>
<path d="M528.435 380.093C528.435 377.551 526.367 375.687 523.609 375.687H396.402C393.817 375.687 391.576 377.721 391.576 380.093V458.047H528.435V380.093Z" fill="url(#paint19_linear)"/>
<path d="M396.402 472.79H523.781C526.367 472.79 528.607 470.757 528.607 468.384V458.216H391.748V468.384C391.576 470.757 393.644 472.79 396.402 472.79Z" fill="url(#paint20_linear)"/>
<path opacity="0.2" d="M472.417 409.75C472.417 416.528 466.901 421.951 460.006 421.951C453.111 421.951 447.596 416.528 447.596 409.75C447.596 402.971 453.111 397.548 460.006 397.548C466.901 397.548 472.417 402.971 472.417 409.75Z" fill="white"/>
<path d="M356.757 485.331H327.282V489.737H356.757V485.331Z" fill="url(#paint21_linear)"/>
<path d="M405.709 485.331H343.829V489.737H405.709V485.331Z" fill="url(#paint22_linear)"/>
<g clip-path="url(#clip0)">
<path d="M597.506 456.431H517.033V490.024H597.506V456.431Z" fill="#FCDDD4"/>
<path fill-rule="evenodd" clip-rule="evenodd" d="M557.716 447.673V447.749C558.355 445.998 559.633 443.21 561.784 439.052C566.05 431.09 570.813 424.974 570.813 424.974C570.813 424.974 568.73 431.77 564.463 439.731C560.69 446.857 558.624 449.731 557.716 450.167V450.573C558.81 449.158 561.217 446.732 565.455 442.935C572.5 436.721 579.446 432.255 579.446 432.255C579.446 432.255 574.981 437.984 567.936 444.294C563.804 447.944 561.066 450.133 559.357 451.254C561.097 450.196 563.803 448.744 567.738 446.819C576.47 442.547 584.408 439.925 584.408 439.925C584.408 439.925 578.256 444.294 569.524 448.566C562.874 451.894 559.274 453.307 557.716 453.577V453.868C559.116 453.106 562.698 451.882 569.524 450.023C579.149 447.401 587.583 446.236 587.583 446.236C587.583 446.236 580.24 449.44 570.615 452.062C567.477 452.916 564.972 453.544 563.011 453.981C564.998 453.656 567.565 453.306 570.813 452.935C581.034 451.673 589.567 451.77 589.567 451.77C589.567 451.77 581.53 453.906 571.309 455.071C563.081 456.088 559.033 456.223 557.716 455.933V456.139H556.724V456C556.541 456.052 556.285 456.096 555.93 456.139H553.052C550.869 456.042 547.595 455.848 543.03 455.266C532.81 454.003 524.772 451.965 524.772 451.965C524.772 451.965 533.306 451.867 543.526 453.13C546.597 453.48 549.059 453.803 550.998 454.101C549.088 453.668 546.688 453.063 543.725 452.256C534 449.634 526.757 446.43 526.757 446.43C526.757 446.43 535.191 447.595 544.816 450.217C551.811 452.122 555.399 453.36 556.724 454.119V453.776C555.223 453.528 551.613 452.085 544.817 448.761C536.085 444.489 529.933 440.12 529.933 440.12C529.933 440.12 537.871 442.741 546.603 447.013C550.291 448.817 552.899 450.206 554.645 451.245C552.906 450.071 550.245 447.929 546.404 444.489C539.359 438.178 534.894 432.45 534.894 432.45C534.894 432.45 541.84 436.819 548.885 443.129C551.913 445.842 554.006 447.855 555.353 449.3C554.196 447.826 552.399 444.913 549.777 440.023C545.511 432.061 543.427 425.265 543.427 425.265C543.427 425.265 548.289 431.382 552.457 439.343C554.861 443.936 556.175 446.881 556.724 448.588V447.675C556.19 446.47 555.83 442.988 555.83 436.042C555.83 427.11 557.22 419.828 557.22 419.828C557.22 419.828 558.609 427.11 558.609 436.042C558.609 442.984 558.249 446.466 557.716 447.673ZM556.724 450.517C556.577 450.505 556.384 450.397 556.141 450.177C556.369 450.444 556.563 450.684 556.724 450.899V450.517ZM556.724 452.359C556.482 452.297 556.168 452.162 555.775 451.946C556.155 452.194 556.47 452.415 556.724 452.611V452.359ZM557.716 452.341C557.989 452.137 558.324 451.906 558.728 451.647C558.312 451.891 557.977 452.05 557.716 452.134V452.341ZM556.724 454.992C556.404 455.014 555.953 454.992 555.354 454.92C555.989 455.08 556.437 455.228 556.724 455.366V454.992ZM557.716 455.211C558.088 455.042 558.68 454.855 559.528 454.653C558.72 454.772 558.125 454.818 557.716 454.803V455.211Z" fill="#F37753"/>
<path d="M551.861 456.139H533.306C536.184 455.945 539.657 455.848 543.328 455.848C546.9 455.848 549.778 455.945 551.861 456.139Z" fill="#F37753"/>
<path d="M562.478 456.139H581.034C578.156 455.945 574.683 455.751 571.012 455.848C567.341 455.945 564.562 456.042 562.478 456.139Z" fill="#F37753"/>
</g>
<path d="M429.52 296.272C429.52 285.227 438.474 276.272 449.52 276.272H563.04C574.086 276.272 583.04 285.227 583.04 296.272V322.221C583.04 333.267 574.086 342.221 563.04 342.221H429.52V296.272Z" fill="#F69477"/>
<ellipse opacity="0.5" cx="464.295" cy="309.664" rx="5.08908" ry="5.0088" fill="white"/>
<ellipse opacity="0.5" cx="485.499" cy="309.664" rx="5.08908" ry="5.0088" fill="white"/>
<ellipse opacity="0.5" cx="506.704" cy="309.664" rx="5.08908" ry="5.0088" fill="white"/>
<ellipse opacity="0.5" cx="527.908" cy="309.664" rx="5.08908" ry="5.0088" fill="white"/>
<ellipse opacity="0.5" cx="549.113" cy="309.664" rx="5.08908" ry="5.0088" fill="white"/>
<defs>
<linearGradient id="paint0_linear" x1="312.239" y1="176.344" x2="231.313" y2="326.772" gradientUnits="userSpaceOnUse">
<stop stop-color="#F37753"/>
<stop offset="1" stop-color="white" stop-opacity="0"/>
</linearGradient>
<linearGradient id="paint1_linear" x1="224.839" y1="142.6" x2="271.258" y2="465.542" gradientUnits="userSpaceOnUse">
<stop stop-color="#F7A58D"/>
<stop offset="1" stop-color="#F58A6B"/>
</linearGradient>
<linearGradient id="paint2_linear" x1="373.981" y1="378.738" x2="371.004" y2="345.28" gradientUnits="userSpaceOnUse">
<stop stop-color="#FFB3B6"/>
<stop offset="1" stop-color="#FFC8C1"/>
</linearGradient>
<linearGradient id="paint3_linear" x1="346.411" y1="374.818" x2="375.208" y2="385.355" gradientUnits="userSpaceOnUse">
<stop stop-color="#FFB3B6" stop-opacity="0.31"/>
<stop offset="1" stop-color="#FFC8C1"/>
</linearGradient>
<linearGradient id="paint4_linear" x1="399.707" y1="432.113" x2="393.733" y2="369.523" gradientUnits="userSpaceOnUse">
<stop stop-color="#FFB3B6"/>
<stop offset="1" stop-color="white"/>
</linearGradient>
<linearGradient id="paint5_linear" x1="398.208" y1="366.224" x2="392.472" y2="316.078" gradientUnits="userSpaceOnUse">
<stop stop-color="#FFB3B6"/>
<stop offset="1" stop-color="#FFC8C1"/>
</linearGradient>
<linearGradient id="paint6_linear" x1="359.16" y1="367.991" x2="359.16" y2="492.79" gradientUnits="userSpaceOnUse">
<stop stop-color="#F4A984"/>
<stop offset="1" stop-color="#EE4D47"/>
</linearGradient>
<linearGradient id="paint7_linear" x1="300.471" y1="387.177" x2="300.471" y2="492.425" gradientUnits="userSpaceOnUse">
<stop stop-color="#F4A984"/>
<stop offset="1" stop-color="#EE4D47"/>
</linearGradient>
<linearGradient id="paint8_linear" x1="358.996" y1="266.175" x2="358.996" y2="332.735" gradientUnits="userSpaceOnUse">
<stop stop-color="#F4A984"/>
<stop offset="1" stop-color="#EE4D47"/>
</linearGradient>
<linearGradient id="paint9_linear" x1="325.04" y1="321.104" x2="325.04" y2="348.837" gradientUnits="userSpaceOnUse">
<stop stop-color="#F4A984"/>
<stop offset="1" stop-color="#EE4D47"/>
</linearGradient>
<linearGradient id="paint10_linear" x1="316.508" y1="323.166" x2="316.508" y2="347.059" gradientUnits="userSpaceOnUse">
<stop stop-color="#F4A984"/>
<stop offset="1" stop-color="#EE4D47"/>
</linearGradient>
<linearGradient id="paint11_linear" x1="392.59" y1="321.443" x2="392.59" y2="349.176" gradientUnits="userSpaceOnUse">
<stop stop-color="#F4A984"/>
<stop offset="1" stop-color="#EE4D47"/>
</linearGradient>
<linearGradient id="paint12_linear" x1="400.968" y1="323.504" x2="400.968" y2="347.398" gradientUnits="userSpaceOnUse">
<stop stop-color="#F4A984"/>
<stop offset="1" stop-color="#EE4D47"/>
</linearGradient>
<linearGradient id="paint13_linear" x1="344.69" y1="365.893" x2="344.69" y2="373.999" gradientUnits="userSpaceOnUse">
<stop stop-color="#F4A984"/>
<stop offset="1" stop-color="#EE4D47"/>
</linearGradient>
<linearGradient id="paint14_linear" x1="317.864" y1="404.482" x2="339.835" y2="321.144" gradientUnits="userSpaceOnUse">
<stop stop-color="#FFB3B6"/>
<stop offset="0.239165" stop-color="#FFC5C7"/>
<stop offset="1" stop-color="white"/>
</linearGradient>
<linearGradient id="paint15_linear" x1="433.649" y1="624.037" x2="433.649" y2="143.796" gradientUnits="userSpaceOnUse">
<stop stop-color="#FFEDBA"/>
<stop offset="0.423008" stop-color="#F16D5E"/>
<stop offset="0.651925" stop-color="#EE4D47"/>
</linearGradient>
<linearGradient id="paint16_linear" x1="455.222" y1="518.961" x2="455.222" y2="426.074" gradientUnits="userSpaceOnUse">
<stop stop-color="#FFEDBA"/>
<stop offset="1" stop-color="#EE4D47"/>
</linearGradient>
<linearGradient id="paint17_linear" x1="444.348" y1="507.221" x2="444.348" y2="480.985" gradientUnits="userSpaceOnUse">
<stop stop-color="#FFEDBA"/>
<stop offset="1" stop-color="#EE4D47"/>
</linearGradient>
<linearGradient id="paint18_linear" x1="458.137" y1="499.128" x2="458.137" y2="472.448" gradientUnits="userSpaceOnUse">
<stop stop-color="#FFEDBA"/>
<stop offset="1" stop-color="#EE4D47"/>
</linearGradient>
<linearGradient id="paint19_linear" x1="440.826" y1="511.943" x2="440.826" y2="297.467" gradientUnits="userSpaceOnUse">
<stop stop-color="#FFEDBA"/>
<stop offset="1" stop-color="#EE4D47"/>
</linearGradient>
<linearGradient id="paint20_linear" x1="440.992" y1="502.163" x2="440.992" y2="417.182" gradientUnits="userSpaceOnUse">
<stop stop-color="#FFEDBA"/>
<stop offset="1" stop-color="#EE4D47"/>
</linearGradient>
<linearGradient id="paint21_linear" x1="337.889" y1="506.411" x2="337.889" y2="481.146" gradientUnits="userSpaceOnUse">
<stop stop-color="#FFEDBA"/>
<stop offset="1" stop-color="#EE4D47"/>
</linearGradient>
<linearGradient id="paint22_linear" x1="366.097" y1="485.302" x2="366.097" y2="466.08" gradientUnits="userSpaceOnUse">
<stop stop-color="#FFEDBA"/>
<stop offset="1" stop-color="#EE4D47"/>
</linearGradient>
<clipPath id="clip0">
<rect x="517.033" y="419.828" width="80.4726" height="70.2928" fill="white"/>
</clipPath>
</defs>
</svg>
